HIERARCHY
ROOT joint_Root
{
	OFFSET 0.0 0.0 0.0
	CHANNELS 6 Xposition Yposition Zposition Zrotation Xrotation Yrotation 
	JOINT Hips
	{
		OFFSET -17.1583 93.1646 452.98
		CHANNELS 6 Xposition Yposition Zposition Zrotation Xrotation Yrotation 
		JOINT Spine
		{
			OFFSET 15.7357 0.0 0.0
			CHANNELS 6 Xposition Yposition Zposition Zrotation Xrotation Yrotation 
			JOINT Chest
			{
				OFFSET 8.98455 -0.406207 0.0
				CHANNELS 6 Xposition Yposition Zposition Zrotation Xrotation Yrotation 
				JOINT Neck
				{
					OFFSET 16.3773 0.0 0.0
					CHANNELS 6 Xposition Yposition Zposition Zrotation Xrotation Yrotation 
					JOINT Head
					{
						OFFSET 6.45672 0.0 0.0
						CHANNELS 6 Xposition Yposition Zposition Zrotation Xrotation Yrotation 
						End Site
						{
							OFFSET 0.0 0.0 0.0
						}
					}
				}
				JOINT Shoulder_L
				{
					OFFSET 12.9942 -0.242716 4.98039
					CHANNELS 6 Xposition Yposition Zposition Zrotation Xrotation Yrotation 
					JOINT UpperArm_L
					{
						OFFSET 5.34809 0.0 0.0
						CHANNELS 6 Xposition Yposition Zposition Zrotation Xrotation Yrotation 
						JOINT LowerArm_L
						{
							OFFSET 24.3286 1.87007e-05 0.0
							CHANNELS 6 Xposition Yposition Zposition Zrotation Xrotation Yrotation 
							JOINT Hand_L
							{
								OFFSET 22.2916 0.0 0.0
								CHANNELS 6 Xposition Yposition Zposition Zrotation Xrotation Yrotation 
								End Site
								{
									OFFSET 0.0 0.0 0.0
								}
							}
						}
					}
				}
				JOINT Shoulder_R
				{
					OFFSET 12.9945 -0.242716 -4.98039
					CHANNELS 6 Xposition Yposition Zposition Zrotation Xrotation Yrotation 
					JOINT UpperArm_R
					{
						OFFSET -5.34813 0.0 0.0
						CHANNELS 6 Xposition Yposition Zposition Zrotation Xrotation Yrotation 
						JOINT LowerArm_R
						{
							OFFSET -24.3289 0.000322201 0.0
							CHANNELS 6 Xposition Yposition Zposition Zrotation Xrotation Yrotation 
							JOINT Hand_R
							{
								OFFSET -22.2915 -0.000108084 0.0
								CHANNELS 6 Xposition Yposition Zposition Zrotation Xrotation Yrotation 
								End Site
								{
									OFFSET 0.0 0.0 0.0
								}
							}
						}
					}
				}
			}
		}
		JOINT UpperLeg_L
		{
			OFFSET -2.19248 -6.46944 0.0
			CHANNELS 6 Xposition Yposition Zposition Zrotation Xrotation Yrotation 
			JOINT LowerLeg_L
			{
				OFFSET 39.0811 0.0 -1.23785e-05
				CHANNELS 6 Xposition Yposition Zposition Zrotation Xrotation Yrotation 
				JOINT Foot_L
				{
					OFFSET 40.9854 0.0 -1.26872e-05
					CHANNELS 6 Xposition Yposition Zposition Zrotation Xrotation Yrotation 
					JOINT Toes_L
					{
						OFFSET 11.7543 0.0 0.0
						CHANNELS 6 Xposition Yposition Zposition Zrotation Xrotation Yrotation 
						End Site
						{
							OFFSET 0.0 0.0 0.0
						}
					}
				}
			}
		}
		JOINT UpperLeg_R
		{
			OFFSET -2.19251 6.46944 0.0
			CHANNELS 6 Xposition Yposition Zposition Zrotation Xrotation Yrotation 
			JOINT LowerLeg_R
			{
				OFFSET -39.0811 -0.00228153 -0.0401928
				CHANNELS 6 Xposition Yposition Zposition Zrotation Xrotation Yrotation 
				JOINT Foot_R
				{
					OFFSET -40.9854 0.0 0.0
					CHANNELS 6 Xposition Yposition Zposition Zrotation Xrotation Yrotation 
					JOINT Toes_R
					{
						OFFSET -11.7543 0.0 0.0
						CHANNELS 6 Xposition Yposition Zposition Zrotation Xrotation Yrotation 
						End Site
						{
							OFFSET 0.0 0.0 0.0
						}
					}
				}
			}
		}
	}
}
MOTION
Frames:	6
Frame Time:	0.0333333
0.000000 0.000000 0.000000 0.000000 0.000000 -0.000000 123.814000 91.125800 219.461000 -83.162100 53.568300 -179.675000 15.735700 0.000005 -0.000001 84.998400 86.432900 -81.529300 8.984550 -0.406207 -0.000000 -0.622996 -0.875542 6.930130 16.377300 -0.000001 -0.000001 8.406190 19.335600 -5.251770 6.456720 -0.000001 -0.000000 16.372400 31.133800 -1.582690 12.994200 -0.242716 4.980390 -93.031500 7.570920 -68.102100 5.348090 -0.000007 -0.000001 -75.210400 9.050710 -0.696155 24.328600 0.000019 0.000005 19.114900 17.740300 -48.677100 22.291600 -0.000001 0.000005 -4.026200 5.226360 2.046850 12.994500 -0.242716 -4.980390 88.634400 3.630710 -69.371900 -5.348130 -0.000001 -0.000004 -60.508700 -4.571800 8.360740 -24.328900 0.000322 -0.000009 0.125857 11.815300 -0.619342 -22.291500 -0.000108 -0.000004 3.594450 5.062630 5.949380 -2.192480 -6.469440 -0.000000 169.480000 5.528960 3.743680 39.081100 -0.000007 -0.000012 0.128869 -0.419746 17.067600 40.985400 -0.000006 -0.000013 17.750100 11.882800 -67.265000 11.754300 -0.000000 0.000003 0.001399 0.139258 -10.929500 -2.192510 6.469440 -0.000001 171.029000 -1.273030 161.257000 -39.081100 -0.002282 -0.040193 0.190959 -0.101783 61.539400 -40.985400 0.000008 0.000006 -10.445700 -6.084650 -50.428200 -11.754300 -0.000006 -0.000006 -0.000441 0.174793 -9.483420
0.000000 0.000000 0.000000 0.000000 0.000000 -0.000000 126.730000 91.743200 218.314000 -82.881300 48.141500 -179.725000 15.735700 0.000005 -0.000001 71.210000 85.991000 -67.404200 8.984550 -0.406207 -0.000000 -0.068838 -2.841870 7.606630 16.377300 -0.000001 -0.000001 8.318820 19.370500 -5.413100 6.456720 -0.000001 -0.000000 15.426600 31.853700 -2.225100 12.994200 -0.242716 4.980390 -92.641500 6.827130 -68.789100 5.348090 -0.000007 -0.000001 -72.573800 10.047700 -2.731580 24.328600 0.000019 0.000005 23.535900 16.647500 -56.663200 22.291600 -0.000001 0.000005 0.042990 5.178600 3.243750 12.994500 -0.242716 -4.980390 88.613800 3.492540 -68.335300 -5.348130 -0.000001 -0.000004 -58.286400 -10.799000 14.867700 -24.328900 0.000322 -0.000009 0.175014 8.760900 -1.156420 -22.291500 -0.000108 -0.000004 6.839570 5.005330 7.205040 -2.192480 -6.469440 -0.000000 171.454000 6.766730 8.430620 39.081100 -0.000007 -0.000012 0.034673 -0.157283 12.432100 40.985400 -0.000006 -0.000013 13.533000 16.888000 -65.099500 11.754300 -0.000000 0.000003 0.002235 0.110520 -12.095000 -2.192510 6.469440 -0.000001 171.798000 -2.625170 160.753000 -39.081100 -0.002282 -0.040193 0.073230 -0.051411 53.703400 -40.985400 0.000008 0.000006 -5.104260 -15.274200 -56.595100 -11.754300 -0.000006 -0.000006 0.000500 0.158789 -10.133300
0.000000 0.000000 0.000000 0.000000 0.000000 -0.000000 129.595000 92.044900 217.222000 -83.179200 43.100500 -179.718000 15.735700 0.000005 -0.000001 60.739500 85.533700 -56.871800 8.984550 -0.406207 -0.000000 0.196959 -4.620020 7.741820 16.377300 -0.000001 -0.000001 7.517110 18.984300 -5.048610 6.456720 -0.000001 -0.000000 14.289800 31.990200 -2.344740 12.994200 -0.242716 4.980390 -92.283900 6.110020 -69.458900 5.348090 -0.000007 -0.000001 -68.674300 10.819200 -4.693430 24.328600 0.000019 0.000005 26.900700 15.040700 -62.910200 22.291600 -0.000001 0.000005 3.466390 5.118850 4.672230 12.994500 -0.242716 -4.980390 88.803700 2.866610 -67.335900 -5.348130 -0.000001 -0.000004 -57.450900 -12.867600 20.301500 -24.328900 0.000322 -0.000009 0.226577 7.979770 -1.639130 -22.291500 -0.000108 -0.000004 7.331330 5.018430 6.924480 -2.192480 -6.469440 -0.000000 173.761000 6.503920 11.881100 39.081100 -0.000007 -0.000012 0.003717 -0.024519 8.622180 40.985400 -0.000006 -0.000013 9.516570 23.025400 -63.470100 11.754300 -0.000000 0.000003 0.741684 1.128250 -13.026300 -2.192510 6.469440 -0.000001 171.697000 -3.212940 160.770000 -39.081100 -0.002282 -0.040193 0.024642 -0.022444 43.600500 -40.985400 0.000008 0.000006 -1.718390 -21.680500 -60.184700 -11.754300 -0.000006 -0.000006 0.000409 0.160476 -10.064800
0.000000 0.000000 0.000000 0.000000 0.000000 -0.000000 132.392000 91.930700 216.053000 -83.397100 39.411700 179.918000 15.735700 0.000005 -0.000001 55.567000 85.288500 -51.715700 8.984550 -0.406207 -0.000000 0.209016 -5.580480 7.712710 16.377300 -0.000001 -0.000001 6.390510 18.459100 -4.313760 6.456720 -0.000001 -0.000000 13.072200 31.515200 -2.246900 12.994200 -0.242716 4.980390 -92.120300 5.817480 -69.935000 5.348090 -0.000007 -0.000001 -64.350800 10.396000 -6.596270 24.328600 0.000019 0.000005 27.285200 12.790100 -66.772200 22.291600 -0.000001 0.000005 5.118710 5.069370 5.806760 12.994500 -0.242716 -4.980390 89.116200 2.071750 -66.890500 -5.348130 -0.000001 -0.000004 -58.180900 -12.069500 24.275000 -24.328900 0.000322 -0.000009 0.167708 8.793250 -1.104390 -22.291500 -0.000108 -0.000004 6.435370 5.044660 6.354940 -2.192480 -6.469440 -0.000000 175.321000 7.056720 13.873600 39.081100 -0.000007 -0.000012 0.000663 -0.005197 7.275800 40.985400 -0.000006 -0.000013 8.898410 26.296700 -63.942100 11.754300 -0.000000 0.000003 1.590450 2.238610 -14.378000 -2.192510 6.469440 -0.000001 171.112000 -4.303420 160.700000 -39.081100 -0.002282 -0.040193 0.024346 -0.031712 33.577900 -40.985400 0.000008 0.000006 -2.930480 -20.185900 -63.115400 -11.754300 -0.000006 -0.000006 0.000559 0.157658 -10.179200
0.000000 0.000000 0.000000 0.000000 0.000000 -0.000000 135.242000 91.583700 214.582000 -83.682200 37.148900 -179.930000 15.735700 0.000005 -0.000001 55.884700 85.103300 -52.138200 8.984550 -0.406207 -0.000000 0.545406 -5.726850 7.519920 16.377300 -0.000001 -0.000001 5.168160 17.862500 -3.403310 6.456720 -0.000001 -0.000000 11.787800 30.564700 -2.136000 12.994200 -0.242716 4.980390 -92.113300 5.929760 -70.344200 5.348090 -0.000007 -0.000001 -60.857200 8.338480 -8.176400 24.328600 0.000019 0.000005 24.804500 10.562900 -68.364700 22.291600 -0.000001 0.000005 5.737090 5.062080 5.969750 12.994500 -0.242716 -4.980390 89.398300 1.425230 -67.109900 -5.348130 -0.000001 -0.000004 -59.418800 -11.070200 26.708000 -24.328900 0.000322 -0.000009 -0.001192 10.615100 0.000043 -22.291500 -0.000108 -0.000004 4.939900 5.004050 7.236090 -2.192480 -6.469440 -0.000000 176.222000 7.476580 15.462400 39.081100 -0.000007 -0.000012 0.000709 -0.005059 7.991290 40.985400 -0.000006 -0.000013 9.576950 27.642200 -65.533500 11.754300 -0.000000 0.000003 1.807570 2.440440 -15.341900 -2.192510 6.469440 -0.000001 170.444000 -6.112220 161.184000 -39.081100 -0.002282 -0.040193 0.017502 -0.030607 24.873200 -40.985400 0.000008 0.000006 -5.606030 -11.432000 -64.845600 -11.754300 -0.000006 -0.000006 0.000387 0.160885 -10.048200
0.000000 0.000000 0.000000 0.000000 0.000000 -0.000000 138.263000 91.120900 212.845000 -83.799200 35.628500 -179.877000 15.735700 0.000005 -0.000001 57.358700 85.036000 -53.706400 8.984550 -0.406207 -0.000000 0.787708 -5.575220 7.342040 16.377300 -0.000001 -0.000001 3.963880 17.192900 -2.523720 6.456720 -0.000001 -0.000000 10.619700 29.490300 -1.898430 12.994200 -0.242716 4.980390 -92.141700 6.119780 -70.669900 5.348090 -0.000007 -0.000001 -59.091800 5.299310 -9.077640 24.328600 0.000019 0.000005 20.730700 8.807790 -67.973000 22.291600 -0.000001 0.000005 6.962040 5.067420 5.850700 12.994500 -0.242716 -4.980390 89.520800 1.169460 -67.715200 -5.348130 -0.000001 -0.000004 -60.263500 -10.567900 27.665000 -24.328900 0.000322 -0.000009 -0.001219 13.715400 0.000058 -22.291500 -0.000108 -0.000004 3.437480 4.900840 9.364070 -2.192480 -6.469440 -0.000000 177.151000 7.779330 16.525900 39.081100 -0.000007 -0.000012 0.001249 -0.007114 9.965160 40.985400 -0.000006 -0.000013 10.295400 28.643900 -67.172000 11.754300 -0.000000 0.000003 1.766120 2.246280 -16.564200 -2.192510 6.469440 -0.000001 170.302000 -6.936730 161.741000 -39.081100 -0.002282 -0.040193 -0.002369 0.017587 17.939300 -40.985400 0.000008 0.000006 -10.092300 -1.546410 -65.794500 -11.754300 -0.000006 -0.000006 0.000031 0.167149 -9.793860
